<?xml version="1.0" encoding="UTF-8"?>
<svg id="Layer_2" data-name="Layer 2" xmlns="http://www.w3.org/2000/svg" viewBox="0 0 122.25 122.24">
  <defs>
    <style>
      .cls-1 {
        fill: #ed1c24;
      }
    </style>
  </defs>
  <g id="Layer_1-2" data-name="Layer 1">
    <path class="cls-1" d="M116.39,88.1c7.81,7.81,7.81,20.47,0,28.28-3.9,3.9-9.02,5.86-14.14,5.86s-10.24-1.96-14.15-5.86l-26.97-26.97-26.98,26.97c-7.82,7.81-20.48,7.81-28.29,0-7.81-7.81-7.81-20.47,0-28.28l26.98-26.98L5.86,34.14C-1.95,26.33-1.95,13.67,5.86,5.86s20.47-7.81,28.29,0l26.98,26.98,26.97-26.98c7.81-7.81,20.48-7.81,28.29,0,3.9,3.9,5.86,9.02,5.86,14.14s-1.96,10.24-5.86,14.14l-26.98,26.98,26.98,26.98Z"/>
  </g>
</svg>