<?xml version="1.0" encoding="UTF-8"?>
<svg id="Layer_2" data-name="Layer 2" xmlns="http://www.w3.org/2000/svg" viewBox="0 0 223.12 214">
  <g id="Layer_1-2" data-name="Layer 1">
    <path d="M211.99,86.3c-3.08,1.12-6.57,1.37-10.14.41l-10.99-2.95-36.71-9.83c-12.56-3.36-16.76-19.06-7.57-28.25l9.97-9.97c-14.07-9.7-31.15-15.33-49.56-15.21-46.38.3-84.64,37.81-85.81,84.18-1.23,48.76,37.92,88.67,86.39,88.67,20.41,0,39.18-7.08,53.96-18.91,4.06-3.25,9.9-3,13.58.68h0c4.28,4.28,3.85,11.3-.86,15.1-18.62,15.07-42.41,24.02-68.28,23.78C47.13,213.45-.6,164.73,0,105.88.61,47.31,48.28,0,107,0c24,0,46.16,7.91,64.01,21.25l10.49-10.49c9.19-9.19,24.89-4.99,28.25,7.57l12.78,47.7c2.41,8.99-2.79,17.43-10.54,20.27Z"/>
  </g>
</svg>