<?xml version="1.0" encoding="UTF-8"?>
<svg id="Layer_1" data-name="Layer 1" xmlns="http://www.w3.org/2000/svg" viewBox="0 0 285.78 272.93">
  <defs>
    <style>
      .cls-1 {
        fill: #231f20;
      }
    </style>
  </defs>
  <path class="cls-1" d="M153.59,7.15l31.02,74.76c1.67,4.02,5.45,6.77,9.79,7.11l80.69,6.4c10.29.82,14.46,13.66,6.62,20.36l-61.52,52.6c-3.31,2.83-4.75,7.27-3.74,11.51l18.85,78.72c2.4,10.03-8.52,17.97-17.32,12.58l-69.04-42.25c-3.71-2.27-8.39-2.27-12.1,0l-69.04,42.25c-8.8,5.39-19.72-2.55-17.32-12.58l18.85-78.72c1.01-4.23-.43-8.68-3.74-11.51L4.07,115.78c-7.84-6.71-3.67-19.55,6.62-20.36l80.69-6.4c4.34-.34,8.12-3.09,9.79-7.11L132.18,7.15c3.95-9.53,17.45-9.53,21.41,0Z"/>
</svg>