<?xml version="1.0" encoding="UTF-8"?>
<svg id="Layer_2" data-name="Layer 2" xmlns="http://www.w3.org/2000/svg" viewBox="0 0 1154.9 104.4">
  <defs>
    <style>
      .cls-1 {
        fill: #ed1c24;
      }

      .cls-2 {
        fill: none;
        stroke: #000;
        stroke-miterlimit: 10;
        stroke-width: 14px;
      }
    </style>
  </defs>
  <g id="Layer_1-2" data-name="Layer 1">
    <g>
      <path d="M75.9,4.2v19.9c0,.53-.2.98-.6,1.35-.4.37-.87.55-1.4.55h-21.9v74.2c0,.6-.2,1.08-.6,1.45-.4.37-.87.55-1.4.55h-24.2c-.53,0-.98-.18-1.35-.55s-.55-.85-.55-1.45V26H2c-.6,0-1.08-.18-1.45-.55-.37-.37-.55-.82-.55-1.35V4.2c0-.6.18-1.08.55-1.45.37-.37.85-.55,1.45-.55h71.9c.53,0,1,.18,1.4.55.4.37.6.85.6,1.45Z"/>
      <path d="M153.2,2.2c1.07,0,1.7.5,1.9,1.5l11.8,52.7,7.3-52.5c.07-.47.28-.87.65-1.2.37-.33.82-.5,1.35-.5h24.1c.6,0,1.1.22,1.5.65.4.43.53.95.4,1.55l-13.3,96.1c-.07.47-.28.87-.65,1.2-.37.33-.78.5-1.25.5h-26.4c-.53,0-.97-.17-1.3-.5-1.73-1.73-3.55-4.52-5.45-8.35-1.9-3.83-3.62-7.9-5.15-12.2-1.53-4.3-2.93-8.48-4.2-12.55-1.27-4.07-2.23-7.4-2.9-10l-1-4c-.27,1-.63,2.38-1.1,4.15-.47,1.77-1.42,4.98-2.85,9.65-1.43,4.67-2.85,8.97-4.25,12.9-1.4,3.93-3.08,7.88-5.05,11.85-1.97,3.97-3.78,6.82-5.45,8.55-.33.33-.8.5-1.4.5h-26.3c-.53,0-.98-.17-1.35-.5-.37-.33-.58-.73-.65-1.2L78.9,4.4c-.07-.6.1-1.12.5-1.55.4-.43.9-.65,1.5-.65h24.1c.47,0,.88.17,1.25.5.37.33.58.73.65,1.2l7.4,52.5L126.1,3.7c.2-1,.83-1.5,1.9-1.5h25.2Z"/>
      <path d="M421.5,4.2c0-.6.18-1.08.55-1.45.37-.37.82-.55,1.35-.55h24.2c.53,0,1,.18,1.4.55.4.37.6.85.6,1.45v96c0,.53-.2,1-.6,1.4s-.87.6-1.4.6h-25c-.73,0-1.3-.33-1.7-1l-31.3-55.4v54.4c0,.6-.2,1.08-.6,1.45-.4.37-.87.55-1.4.55h-24.1c-.6,0-1.08-.18-1.45-.55-.37-.37-.55-.85-.55-1.45V4.2c0-.6.18-1.08.55-1.45.37-.37.85-.55,1.45-.55h25c.73,0,1.27.3,1.6.9l31.4,50.5V4.2Z"/>
      <path d="M641.64,4.2v19.9c0,.53-.2.98-.6,1.35-.4.37-.87.55-1.4.55h-21.9v74.2c0,.6-.2,1.08-.6,1.45-.4.37-.87.55-1.4.55h-24.2c-.53,0-.98-.18-1.35-.55s-.55-.85-.55-1.45V26h-21.9c-.6,0-1.08-.18-1.45-.55-.37-.37-.55-.82-.55-1.35V4.2c0-.6.18-1.08.55-1.45.37-.37.85-.55,1.45-.55h71.9c.53,0,1,.18,1.4.55.4.37.6.85.6,1.45Z"/>
      <path d="M767.35,4.2v19.9c0,.53-.2.98-.6,1.35-.4.37-.87.55-1.4.55h-21.9v74.2c0,.6-.2,1.08-.6,1.45-.4.37-.87.55-1.4.55h-24.2c-.54,0-.98-.18-1.35-.55s-.55-.85-.55-1.45V26h-21.9c-.6,0-1.08-.18-1.45-.55-.37-.37-.55-.82-.55-1.35V4.2c0-.6.18-1.08.55-1.45s.85-.55,1.45-.55h71.9c.53,0,1,.18,1.4.55.4.37.6.85.6,1.45Z"/>
      <path d="M962.2.75c.53,0,.98.18,1.35.55.37.37.55.82.55,1.35v60.1c0,3.93-.43,7.75-1.3,11.45-.87,3.7-2.37,7.37-4.5,11-2.13,3.63-4.8,6.8-8,9.5-3.2,2.7-7.34,4.87-12.4,6.5-5.07,1.63-10.75,2.45-17.05,2.45s-11.97-.82-17-2.45c-5.03-1.63-9.17-3.8-12.4-6.5-3.23-2.7-5.92-5.87-8.05-9.5-2.13-3.63-3.63-7.3-4.5-11-.87-3.7-1.3-7.52-1.3-11.45V2.65c0-.53.18-.98.55-1.35s.81-.55,1.35-.55h24.2c.53,0,1,.18,1.4.55.4.37.6.82.6,1.35v60.6c0,2.07.25,4.02.75,5.85.5,1.83,1.32,3.58,2.45,5.25,1.13,1.67,2.73,2.98,4.8,3.95,2.07.97,4.47,1.45,7.2,1.45s5.13-.48,7.2-1.45c2.07-.97,3.65-2.28,4.75-3.95,1.1-1.67,1.92-3.42,2.45-5.25.53-1.83.8-3.78.8-5.85V2.65c0-.53.18-.98.55-1.35s.81-.55,1.35-.55h24.2Z"/>
      <path d="M1040.9,66.9l19.3,15.3c.4.33.63.77.7,1.3.07.53-.07,1-.4,1.4-4.94,6.07-10.95,10.83-18.05,14.3-7.1,3.47-14.72,5.2-22.85,5.2-7.13,0-13.94-1.37-20.4-4.1-6.47-2.73-12.05-6.43-16.75-11.1-4.7-4.67-8.43-10.23-11.2-16.7-2.77-6.47-4.15-13.23-4.15-20.3s1.38-13.82,4.15-20.25c2.77-6.43,6.5-11.98,11.2-16.65,4.7-4.67,10.28-8.38,16.75-11.15,6.46-2.77,13.27-4.15,20.4-4.15,8.06,0,15.67,1.73,22.8,5.2,7.13,3.47,13.13,8.2,18,14.2.33.47.47.97.4,1.5-.07.53-.3.97-.7,1.3l-19.3,15.2c-.4.33-.85.48-1.35.45-.5-.03-.92-.25-1.25-.65-2.33-2.6-5.15-4.73-8.45-6.4-3.3-1.67-6.69-2.5-10.15-2.5-6.67,0-12.33,2.33-17,7-4.67,4.67-7,10.3-7,16.9s2.33,12.23,7,16.9c4.67,4.67,10.33,7,17,7,3.46,0,6.87-.83,10.2-2.5,3.33-1.67,6.17-3.83,8.5-6.5.33-.4.75-.62,1.25-.65.5-.03.95.12,1.35.45Z"/>
      <path d="M1126.9,4.2c0-.6.18-1.08.55-1.45.37-.37.82-.55,1.35-.55h24.2c.53,0,.98.18,1.35.55.37.37.55.85.55,1.45v96c0,.6-.19,1.08-.55,1.45-.37.37-.82.55-1.35.55h-24.2c-.54,0-.98-.18-1.35-.55-.37-.37-.55-.85-.55-1.45v-36.1h-34.9v36.1c0,.6-.2,1.08-.6,1.45-.4.37-.87.55-1.4.55h-24.1c-.6,0-1.08-.18-1.45-.55-.37-.37-.55-.85-.55-1.45V4.2c0-.6.18-1.08.55-1.45.37-.37.85-.55,1.45-.55h24.1c.53,0,1,.18,1.4.55.4.37.6.85.6,1.45v36.1h34.9V4.2Z"/>
      <g>
        <path d="M256.08,23.47l6.44,15.51c.35.83,1.13,1.4,2.03,1.48l16.74,1.33c2.13.17,3,2.83,1.37,4.22l-12.76,10.91c-.69.59-.99,1.51-.78,2.39l3.91,16.33c.5,2.08-1.77,3.73-3.59,2.61l-14.32-8.77c-.77-.47-1.74-.47-2.51,0l-14.32,8.77c-1.83,1.12-4.09-.53-3.59-2.61l3.91-16.33c.21-.88-.09-1.8-.78-2.39l-12.76-10.91c-1.63-1.39-.76-4.06,1.37-4.22l16.74-1.33c.9-.07,1.68-.64,2.03-1.48l6.43-15.51c.82-1.98,3.62-1.98,4.44,0Z"/>
        <rect class="cls-2" x="210.55" y="8.89" width="86.62" height="86.62" rx="20.79" ry="20.79"/>
      </g>
      <g>
        <g id="Layer_1-2" data-name="Layer 1-2">
          <path class="cls-1" d="M526.29,60.67c2.45,2.45,2.45,6.42,0,8.87-1.22,1.22-2.83,1.84-4.44,1.84s-3.21-.62-4.44-1.84l-8.46-8.46-8.47,8.46c-2.45,2.45-6.43,2.45-8.88,0-2.45-2.45-2.45-6.42,0-8.87l8.47-8.47-8.47-8.47c-2.45-2.45-2.45-6.42,0-8.87,2.45-2.45,6.42-2.45,8.88,0l8.47,8.47,8.46-8.47c2.45-2.45,6.43-2.45,8.88,0,1.22,1.22,1.84,2.83,1.84,4.44s-.62,3.21-1.84,4.44l-8.47,8.47,8.47,8.47Z"/>
        </g>
        <rect class="cls-2" x="465.64" y="8.89" width="86.62" height="86.62" rx="20.79" ry="20.79"/>
      </g>
      <g>
        <path d="M824.69,23.47l6.44,15.51c.35.83,1.13,1.4,2.03,1.48l16.74,1.33c2.13.17,3,2.83,1.37,4.22l-12.76,10.91c-.69.59-.99,1.51-.78,2.39l3.91,16.33c.5,2.08-1.77,3.73-3.59,2.61l-14.32-8.77c-.77-.47-1.74-.47-2.51,0l-14.32,8.77c-1.83,1.12-4.09-.53-3.59-2.61l3.91-16.33c.21-.88-.09-1.8-.78-2.39l-12.76-10.91c-1.63-1.39-.76-4.06,1.37-4.22l16.74-1.33c.9-.07,1.68-.64,2.03-1.48l6.43-15.51c.82-1.98,3.62-1.98,4.44,0Z"/>
        <rect class="cls-2" x="779.16" y="8.89" width="86.62" height="86.62" rx="20.79" ry="20.79"/>
      </g>
    </g>
  </g>
</svg>